<?xml version="1.0" encoding="UTF-8" standalone="no"?>
<!DOCTYPE svg PUBLIC "-//W3C//DTD SVG 1.1//EN" "http://www.w3.org/Graphics/SVG/1.1/DTD/svg11.dtd">
<svg width="100%" height="100%" viewBox="0 0 1869 178" version="1.1" xmlns="http://www.w3.org/2000/svg" xmlns:xlink="http://www.w3.org/1999/xlink" xml:space="preserve" xmlns:serif="http://www.serif.com/" style="fill-rule:evenodd;clip-rule:evenodd;stroke-linejoin:round;stroke-miterlimit:2;">
    <g transform="matrix(1.85935,0,0,1.85935,-2326.72,-2162.4)">
        <g transform="matrix(0.420697,0,0,0.420697,973.931,970.884)">
            <path d="M661.803,464.567L661.734,464.566L659.46,464.558L659.491,456.634L661.8,456.643L661.803,464.567ZM661.803,464.567L661.924,456.645L667.534,456.816C667.578,456.818 667.622,456.82 667.666,456.823L673.266,457.181C673.31,457.184 673.353,457.187 673.397,457.191L678.978,457.735C679.022,457.74 679.065,457.745 679.109,457.75L684.663,458.479C684.707,458.485 684.751,458.491 684.794,458.499L690.314,459.411C690.358,459.418 690.401,459.426 690.444,459.435L695.923,460.53C695.966,460.538 696.009,460.548 696.052,460.558L701.481,461.833C701.524,461.843 701.567,461.854 701.61,461.865L706.982,463.318C707.025,463.33 707.067,463.342 707.11,463.355L712.418,464.983C712.46,464.996 712.502,465.01 712.544,465.024L717.781,466.825C717.823,466.84 717.865,466.855 717.907,466.871L723.065,468.842C723.107,468.857 723.148,468.874 723.189,468.891L728.262,471.028C728.324,471.054 728.385,471.082 728.445,471.111L738.308,475.867C738.389,475.907 738.468,475.948 738.546,475.993L744.247,479.237L748.979,476.502C749.057,476.457 749.136,476.415 749.217,476.375L759.04,471.557C759.101,471.527 759.162,471.499 759.223,471.473L764.279,469.304C764.32,469.287 764.361,469.27 764.403,469.254L769.545,467.251C769.586,467.234 769.628,467.219 769.67,467.204L774.892,465.37C774.934,465.355 774.976,465.341 775.019,465.328L780.313,463.666C780.356,463.653 780.398,463.64 780.441,463.628L785.801,462.141C785.844,462.129 785.887,462.118 785.93,462.108L791.348,460.798C791.391,460.787 791.434,460.778 791.477,460.769L796.947,459.639C796.99,459.63 797.033,459.622 797.077,459.614L802.589,458.666C802.633,458.659 802.676,458.652 802.72,458.646L808.268,457.881C808.312,457.875 808.356,457.87 808.399,457.865L813.976,457.285C814.019,457.281 814.063,457.277 814.107,457.274L819.703,456.879C819.747,456.876 819.791,456.874 819.835,456.872L825.444,456.664C825.488,456.663 825.532,456.662 825.576,456.662L831.19,456.64C831.234,456.64 831.278,456.641 831.322,456.642L836.932,456.808C836.976,456.809 837.02,456.811 837.064,456.814L842.664,457.166C842.708,457.169 842.752,457.172 842.796,457.176L848.377,457.714C848.421,457.719 848.465,457.724 848.508,457.729L854.064,458.452C854.107,458.458 854.151,458.464 854.194,458.471L859.716,459.378C859.759,459.385 859.803,459.393 859.846,459.402L865.326,460.491C865.369,460.499 865.412,460.508 865.455,460.518L870.886,461.788C870.929,461.798 870.972,461.808 871.014,461.82L876.389,463.267C876.431,463.279 876.474,463.291 876.516,463.304L881.827,464.926C881.869,464.939 881.911,464.953 881.953,464.967L887.193,466.763C887.235,466.777 887.277,466.792 887.318,466.808L892.479,468.773C892.521,468.789 892.562,468.806 892.603,468.823L897.679,470.954C897.72,470.972 897.761,470.99 897.802,471.008L902.785,473.302C902.847,473.33 902.907,473.36 902.966,473.391L912.631,478.451C912.711,478.492 912.789,478.537 912.866,478.584L913.795,479.154L923.38,474.029C923.439,473.997 923.499,473.967 923.56,473.938L928.519,471.603C928.559,471.584 928.6,471.566 928.641,471.548L933.694,469.374C933.734,469.356 933.776,469.339 933.817,469.323L938.957,467.315C938.998,467.298 939.04,467.283 939.082,467.268L944.302,465.428C944.343,465.414 944.386,465.399 944.428,465.386L949.721,463.718C949.763,463.705 949.805,463.692 949.848,463.68L955.206,462.188C955.249,462.176 955.292,462.164 955.335,462.154L960.752,460.839C960.794,460.828 960.838,460.818 960.881,460.809L966.349,459.674C966.392,459.665 966.435,459.656 966.479,459.649L971.99,458.695C972.033,458.687 972.077,458.68 972.12,458.674L977.668,457.904C977.711,457.898 977.755,457.892 977.799,457.888L983.374,457.302C983.418,457.297 983.462,457.293 983.506,457.29L989.102,456.89C989.145,456.886 989.189,456.884 989.233,456.882L994.842,456.668C994.886,456.667 994.93,456.666 994.974,456.665L1000.59,456.638C1000.63,456.638 1000.68,456.639 1000.72,456.64L1006.33,456.799C1006.37,456.801 1006.42,456.803 1006.46,456.805L1012.06,457.151C1012.11,457.154 1012.15,457.157 1012.19,457.162L1017.78,457.694C1017.82,457.698 1017.86,457.703 1017.91,457.708L1023.46,458.425C1023.51,458.431 1023.55,458.437 1023.59,458.444L1029.12,459.345C1029.16,459.352 1029.2,459.36 1029.25,459.369L1034.73,460.452C1034.77,460.46 1034.82,460.469 1034.86,460.479L1040.29,461.743C1040.33,461.753 1040.38,461.763 1040.42,461.775L1045.8,463.216C1045.84,463.228 1045.88,463.24 1045.92,463.253L1051.24,464.87C1051.28,464.883 1051.32,464.896 1051.36,464.911L1056.6,466.701C1056.65,466.715 1056.69,466.73 1056.73,466.746L1061.89,468.706C1061.93,468.721 1061.98,468.738 1062.02,468.755L1067.1,470.881C1067.16,470.907 1067.22,470.934 1067.28,470.963L1077.15,475.7C1077.24,475.738 1077.32,475.78 1077.39,475.824L1083.42,479.235L1087.83,476.673C1087.9,476.628 1087.99,476.586 1088.07,476.546L1097.88,471.707C1097.94,471.678 1098,471.649 1098.06,471.623L1103.11,469.444C1103.15,469.426 1103.19,469.409 1103.23,469.393L1108.37,467.379C1108.41,467.362 1108.45,467.347 1108.49,467.332L1113.71,465.487C1113.75,465.472 1113.8,465.458 1113.84,465.444L1119.13,463.771C1119.17,463.758 1119.21,463.745 1119.26,463.733L1124.61,462.234C1124.65,462.222 1124.7,462.211 1124.74,462.201L1130.15,460.879C1130.2,460.869 1130.24,460.859 1130.28,460.85L1135.75,459.709C1135.79,459.699 1135.84,459.691 1135.88,459.684L1141.39,458.724C1141.43,458.716 1141.48,458.709 1141.52,458.703L1147.07,457.926C1147.11,457.92 1147.15,457.915 1147.2,457.91L1152.77,457.318C1152.82,457.313 1152.86,457.31 1152.9,457.306L1158.5,456.9C1158.54,456.897 1158.59,456.894 1158.63,456.893L1164.24,456.672C1164.28,456.671 1164.33,456.67 1164.37,456.67L1169.99,456.636C1170.03,456.636 1170.07,456.636 1170.12,456.638L1175.73,456.791C1175.77,456.792 1175.82,456.794 1175.86,456.797L1181.46,457.137C1181.51,457.14 1181.55,457.143 1181.59,457.147L1187.17,457.673C1187.22,457.677 1187.26,457.682 1187.31,457.688L1192.86,458.399C1192.91,458.404 1192.95,458.41 1193,458.418L1198.52,459.312C1198.56,459.319 1198.61,459.327 1198.65,459.336L1204.13,460.413C1204.17,460.421 1204.22,460.43 1204.26,460.44L1209.69,461.698C1209.74,461.708 1209.78,461.719 1209.82,461.73L1215.2,463.166C1215.25,463.177 1215.29,463.189 1215.33,463.202L1220.64,464.813C1220.69,464.826 1220.73,464.84 1220.77,464.854L1226.02,466.639C1226.06,466.653 1226.1,466.668 1226.14,466.684L1231.31,468.638C1231.35,468.654 1231.39,468.67 1231.43,468.687L1236.51,470.808C1236.55,470.825 1236.6,470.843 1236.63,470.862L1241.62,473.145C1241.69,473.173 1241.75,473.203 1241.81,473.234L1251.49,478.273C1251.57,478.315 1251.64,478.359 1251.72,478.406L1252.97,479.166L1262.22,474.19C1262.3,474.148 1262.38,474.108 1262.46,474.071L1272.46,469.541C1272.52,469.513 1272.59,469.487 1272.65,469.462L1277.78,467.443C1277.82,467.427 1277.86,467.411 1277.91,467.396L1283.12,465.545C1283.16,465.53 1283.2,465.516 1283.25,465.503L1288.54,463.824C1288.58,463.81 1288.62,463.798 1288.66,463.786L1294.02,462.281C1294.06,462.269 1294.1,462.258 1294.14,462.248L1299.56,460.92C1299.6,460.91 1299.64,460.9 1299.69,460.891L1305.15,459.744C1305.19,459.735 1305.24,459.726 1305.28,459.719L1310.79,458.753C1310.83,458.745 1310.88,458.738 1310.92,458.732L1316.47,457.949C1316.51,457.943 1316.55,457.938 1316.6,457.933L1322.17,457.335C1322.21,457.33 1322.26,457.326 1322.3,457.323L1327.9,456.911C1327.94,456.907 1327.99,456.905 1328.03,456.903L1333.64,456.677C1333.68,456.675 1333.73,456.674 1333.77,456.674L1339.38,456.634L1339.44,464.558L1333.89,464.596L1328.41,464.817L1322.95,465.22L1317.51,465.804L1312.09,466.568L1306.72,467.511L1301.38,468.632L1296.1,469.927L1290.87,471.396L1285.71,473.035L1280.62,474.841L1275.64,476.799L1265.86,481.233L1260.8,483.951L1260.95,484.046C1261.03,484.093 1261.11,484.143 1261.18,484.195L1269.92,490.396C1270,490.449 1270.07,490.505 1270.14,490.563L1278.34,497.282C1278.41,497.34 1278.49,497.401 1278.55,497.465L1286.18,504.656C1286.24,504.72 1286.31,504.786 1286.37,504.855L1293.38,512.468C1293.44,512.537 1293.51,512.609 1293.57,512.683L1299.92,520.665C1299.98,520.74 1300.04,520.817 1300.09,520.896L1305.78,529.192C1305.83,529.272 1305.88,529.354 1305.93,529.438L1310.91,537.991C1310.96,538.076 1311.01,538.163 1311.05,538.251L1315.31,547.002C1315.35,547.092 1315.39,547.183 1315.43,547.275L1318.95,556.164C1318.99,556.258 1319.02,556.353 1319.05,556.45L1321.84,565.414C1321.87,565.512 1321.89,565.612 1321.92,565.712L1323.95,574.69C1323.97,574.792 1323.99,574.896 1324.01,575L1325.3,583.929C1325.31,584.035 1325.32,584.141 1325.33,584.248L1325.88,593.067C1325.89,593.176 1325.89,593.285 1325.89,593.394L1325.71,602.042C1325.71,602.153 1325.7,602.265 1325.69,602.376L1324.81,610.792C1324.79,610.906 1324.78,611.019 1324.76,611.131L1323.18,619.258C1323.16,619.373 1323.13,619.486 1323.1,619.599L1320.86,627.38C1320.83,627.495 1320.79,627.609 1320.75,627.72L1317.88,635.102C1317.83,635.216 1317.78,635.328 1317.73,635.438L1314.27,642.369C1314.21,642.482 1314.15,642.591 1314.08,642.698L1310.06,649.13C1309.99,649.24 1309.92,649.345 1309.84,649.447L1305.31,655.337C1305.23,655.441 1305.14,655.541 1305.05,655.637L1300.05,660.943C1299.96,661.041 1299.86,661.134 1299.76,661.222L1294.35,665.908C1294.24,665.998 1294.13,666.082 1294.02,666.161L1288.24,670.193C1288.13,670.273 1288.01,670.347 1287.89,670.415L1281.8,673.766C1281.68,673.835 1281.55,673.897 1281.42,673.952L1275.08,676.599C1274.95,676.655 1274.81,676.703 1274.68,676.744L1268.15,678.669C1268.01,678.711 1267.87,678.744 1267.73,678.77L1261.07,679.96C1260.93,679.985 1260.78,680.003 1260.64,680.013L1253.91,680.459C1253.77,680.468 1253.62,680.47 1253.47,680.464L1246.75,680.163C1246.6,680.156 1246.45,680.142 1246.31,680.119L1239.63,679.073C1239.49,679.051 1239.35,679.02 1239.21,678.982L1232.65,677.199C1232.51,677.161 1232.38,677.115 1232.24,677.063L1225.87,674.554C1225.73,674.502 1225.6,674.443 1225.48,674.377L1219.34,671.16C1219.21,671.095 1219.09,671.023 1218.98,670.945L1213.13,667.043C1213.02,666.967 1212.91,666.884 1212.8,666.796L1207.31,662.235C1207.21,662.149 1207.11,662.057 1207.02,661.961L1201.93,656.773C1201.84,656.679 1201.75,656.58 1201.67,656.476L1197.04,650.697C1196.96,650.596 1196.88,650.492 1196.81,650.383L1192.69,644.053C1192.62,643.947 1192.56,643.838 1192.5,643.726L1188.92,636.888C1188.87,636.779 1188.81,636.667 1188.77,636.553L1185.78,629.255C1185.74,629.144 1185.69,629.031 1185.66,628.916L1183.3,621.208C1183.26,621.096 1183.23,620.982 1183.21,620.867L1181.5,612.803C1181.48,612.691 1181.46,612.578 1181.45,612.464L1180.42,604.1C1180.41,603.988 1180.4,603.876 1180.4,603.764L1180.08,595.157L1180.08,594.828L1180.49,586.038C1180.5,585.931 1180.51,585.823 1180.52,585.717L1181.66,576.804C1181.68,576.7 1181.7,576.596 1181.72,576.493L1183.61,567.52C1183.63,567.419 1183.65,567.318 1183.68,567.219L1186.32,558.248C1186.35,558.15 1186.38,558.054 1186.42,557.959L1189.8,549.051C1189.83,548.958 1189.87,548.866 1189.91,548.775L1194.03,539.992C1194.07,539.903 1194.12,539.816 1194.17,539.73L1199.01,531.133C1199.06,531.049 1199.11,530.966 1199.16,530.885L1204.71,522.534C1204.76,522.454 1204.82,522.377 1204.87,522.301L1211.1,514.253C1211.16,514.178 1211.22,514.105 1211.28,514.035L1218.17,506.345C1218.23,506.276 1218.3,506.208 1218.36,506.143L1225.87,498.866C1225.94,498.802 1226,498.74 1226.08,498.68L1234.17,491.865C1234.24,491.806 1234.31,491.75 1234.38,491.696L1243.03,485.39C1243.1,485.337 1243.17,485.286 1243.25,485.237L1245.27,483.968L1238.24,480.308L1233.4,478.094L1228.44,476.025L1223.4,474.118L1218.28,472.377L1213.09,470.804L1207.84,469.402L1202.54,468.175L1197.19,467.123L1191.79,466.25L1186.37,465.555L1180.91,465.042L1175.45,464.71L1169.97,464.56L1164.49,464.592L1159.01,464.807L1153.54,465.204L1148.1,465.782L1142.68,466.541L1137.31,467.478L1131.97,468.593L1126.68,469.883L1121.45,471.345L1116.29,472.979L1111.2,474.78L1106.19,476.745L1101.29,478.858L1091.69,483.592L1091.07,483.954L1096.07,487.254C1096.14,487.305 1096.22,487.357 1096.29,487.413L1104.76,493.887C1104.83,493.943 1104.9,494.001 1104.97,494.062L1112.88,501.031C1112.95,501.092 1113.02,501.156 1113.08,501.222L1120.39,508.637C1120.46,508.704 1120.52,508.773 1120.58,508.844L1127.26,516.655C1127.32,516.727 1127.38,516.801 1127.44,516.878L1133.45,525.03C1133.51,525.107 1133.56,525.186 1133.61,525.268L1138.93,533.704C1138.98,533.787 1139.03,533.871 1139.08,533.957L1143.69,542.62C1143.74,542.707 1143.78,542.796 1143.82,542.887L1147.7,551.717C1147.74,551.809 1147.78,551.902 1147.81,551.997L1150.95,560.932C1150.99,561.028 1151.02,561.126 1151.04,561.224L1153.44,570.203C1153.47,570.304 1153.49,570.405 1153.51,570.508L1155.16,579.468C1155.18,579.572 1155.19,579.677 1155.2,579.783L1156.11,588.662C1156.12,588.77 1156.13,588.878 1156.13,588.986L1156.3,597.724C1156.31,597.834 1156.3,597.945 1156.3,598.055L1155.75,606.591C1155.74,606.704 1155.73,606.816 1155.71,606.928L1154.47,615.202C1154.45,615.316 1154.43,615.429 1154.4,615.542L1152.48,623.497C1152.46,623.612 1152.42,623.726 1152.38,623.838L1149.82,631.42C1149.78,631.534 1149.74,631.647 1149.69,631.758L1146.51,638.913C1146.45,639.027 1146.4,639.138 1146.34,639.246L1142.58,645.926C1142.52,646.037 1142.45,646.145 1142.38,646.249L1138.09,652.407C1138.01,652.513 1137.93,652.616 1137.85,652.715L1133.07,658.309C1132.98,658.41 1132.89,658.507 1132.8,658.599L1127.58,663.589C1127.48,663.683 1127.37,663.771 1127.27,663.855L1121.66,668.207C1121.55,668.292 1121.43,668.371 1121.32,668.444L1115.37,672.129C1115.25,672.203 1115.13,672.271 1115,672.332L1108.78,675.323C1108.65,675.385 1108.52,675.44 1108.38,675.488L1101.94,677.764C1101.81,677.813 1101.67,677.853 1101.53,677.886L1094.93,679.434C1094.78,679.467 1094.64,679.492 1094.5,679.51L1087.8,680.316C1087.65,680.334 1087.51,680.343 1087.36,680.345L1080.62,680.405C1080.48,680.407 1080.33,680.4 1080.19,680.385L1073.48,679.699C1073.33,679.684 1073.19,679.661 1073.05,679.63L1066.43,678.203C1066.29,678.172 1066.14,678.134 1066.01,678.088L1059.54,675.929C1059.4,675.883 1059.27,675.83 1059.14,675.771L1052.88,672.894C1052.75,672.835 1052.62,672.769 1052.5,672.697L1046.51,669.123C1046.39,669.052 1046.27,668.975 1046.16,668.891L1040.49,664.645C1040.38,664.564 1040.28,664.476 1040.18,664.384L1034.89,659.495C1034.8,659.404 1034.7,659.308 1034.61,659.208L1029.76,653.71C1029.67,653.612 1029.59,653.51 1029.51,653.404L1025.14,647.335C1025.07,647.232 1025,647.125 1024.93,647.014L1021.09,640.416C1021.02,640.309 1020.97,640.198 1020.91,640.085L1017.64,633.003C1017.59,632.893 1017.54,632.78 1017.5,632.665L1014.83,625.15C1014.79,625.038 1014.75,624.924 1014.73,624.809L1012.7,616.91C1012.67,616.798 1012.65,616.684 1012.63,616.57L1011.27,608.344C1011.25,608.232 1011.24,608.119 1011.23,608.006L1010.57,599.509C1010.56,599.399 1010.56,599.288 1010.56,599.177L1010.61,590.468C1010.62,590.359 1010.62,590.251 1010.63,590.143L1011.42,581.282C1011.43,581.176 1011.44,581.07 1011.46,580.965L1012.99,572.014C1013,571.911 1013.03,571.809 1013.05,571.708L1015.33,562.728C1015.35,562.629 1015.38,562.53 1015.42,562.433L1018.44,553.487C1018.47,553.391 1018.5,553.297 1018.54,553.205L1022.31,544.354C1022.35,544.262 1022.39,544.173 1022.43,544.085L1026.92,535.39C1026.97,535.304 1027.02,535.219 1027.07,535.136L1032.28,526.658C1032.33,526.576 1032.38,526.496 1032.44,526.418L1038.34,518.216C1038.39,518.139 1038.45,518.063 1038.51,517.99L1045.08,510.121C1045.14,510.049 1045.21,509.979 1045.27,509.911L1052.48,502.428C1052.55,502.361 1052.61,502.296 1052.68,502.234L1060.5,495.189C1060.57,495.128 1060.64,495.069 1060.71,495.012L1069.09,488.454C1069.16,488.398 1069.24,488.344 1069.31,488.293L1075.7,483.971L1073.61,482.785L1063.94,478.151L1059.02,476.09L1053.98,474.177L1048.87,472.43L1043.68,470.852L1038.43,469.445L1033.13,468.212L1027.78,467.155L1022.38,466.275L1016.96,465.575L1011.51,465.056L1006.04,464.718L1000.56,464.562L995.078,464.588L989.601,464.797L984.137,465.188L978.693,465.761L973.276,466.513L967.895,467.445L962.557,468.554L957.269,469.838L952.039,471.295L946.873,472.923L941.779,474.719L936.764,476.679L931.834,478.8L927.027,481.064L921.618,483.956L922.085,484.243C922.162,484.29 922.238,484.34 922.312,484.393L931.036,490.611C931.111,490.664 931.183,490.72 931.254,490.778L939.439,497.514C939.511,497.572 939.58,497.633 939.647,497.697L947.252,504.903C947.319,504.967 947.385,505.033 947.448,505.102L954.435,512.728C954.499,512.798 954.56,512.869 954.619,512.943L960.956,520.937C961.015,521.012 961.072,521.089 961.126,521.168L966.784,529.474C966.839,529.554 966.89,529.636 966.939,529.719L971.895,538.281C971.944,538.365 971.99,538.452 972.033,538.54L976.269,547.297C976.312,547.387 976.352,547.478 976.389,547.571L979.89,556.463C979.927,556.557 979.961,556.653 979.99,556.749L982.748,565.715C982.778,565.813 982.805,565.913 982.827,566.014L984.838,574.991C984.861,575.093 984.88,575.197 984.895,575.3L986.161,584.227C986.176,584.333 986.186,584.44 986.193,584.547L986.72,593.361C986.727,593.47 986.729,593.579 986.726,593.689L986.527,602.329C986.524,602.441 986.517,602.553 986.505,602.664L985.596,611.072C985.584,611.185 985.566,611.298 985.544,611.411L983.947,619.527C983.925,619.642 983.897,619.756 983.865,619.868L981.606,627.637C981.573,627.752 981.534,627.866 981.491,627.977L978.602,635.345C978.558,635.459 978.508,635.571 978.452,635.681L974.97,642.597C974.913,642.709 974.851,642.819 974.784,642.925L970.747,649.341C970.678,649.45 970.604,649.555 970.525,649.657L965.976,655.528C965.896,655.633 965.81,655.733 965.719,655.828L960.706,661.115C960.613,661.212 960.515,661.305 960.413,661.393L954.986,666.058C954.881,666.147 954.773,666.231 954.66,666.31L948.871,670.32C948.756,670.4 948.637,670.474 948.514,670.541L942.419,673.87C942.295,673.938 942.166,674 942.035,674.054L935.693,676.679C935.56,676.734 935.424,676.781 935.285,676.822L928.755,678.724C928.615,678.764 928.474,678.797 928.33,678.822L921.672,679.988C921.528,680.013 921.383,680.031 921.237,680.04L914.512,680.462C914.366,680.471 914.219,680.472 914.073,680.465L907.344,680.14C907.198,680.133 907.053,680.118 906.908,680.094L900.238,679.025C900.094,679.002 899.952,678.971 899.812,678.932L893.261,677.125C893.122,677.087 892.985,677.041 892.851,676.987L886.481,674.456C886.349,674.403 886.219,674.343 886.093,674.277L879.964,671.038C879.84,670.972 879.719,670.9 879.603,670.822L873.771,666.898C873.657,666.821 873.547,666.738 873.441,666.65L867.963,662.068C867.86,661.982 867.761,661.89 867.667,661.793L862.596,656.585C862.504,656.491 862.417,656.391 862.335,656.288L857.722,650.49C857.642,650.389 857.567,650.284 857.497,650.176L853.39,643.828C853.322,643.723 853.258,643.613 853.2,643.501L849.643,636.648C849.586,636.539 849.535,636.427 849.488,636.313L846.521,629.001C846.476,628.889 846.436,628.776 846.401,628.661L844.059,620.941C844.025,620.829 843.996,620.715 843.972,620.6L842.288,612.525C842.264,612.413 842.246,612.3 842.232,612.186L841.233,603.813C841.219,603.702 841.211,603.59 841.207,603.478L840.915,594.864C840.911,594.754 840.912,594.644 840.917,594.535L841.349,585.74C841.355,585.633 841.364,585.526 841.378,585.419L842.548,576.504C842.561,576.399 842.579,576.296 842.601,576.193L844.515,567.219C844.537,567.118 844.562,567.017 844.592,566.918L847.253,557.948C847.281,557.851 847.314,557.754 847.35,557.66L850.755,548.755C850.791,548.661 850.83,548.57 850.873,548.479L855.014,539.702C855.056,539.613 855.101,539.525 855.15,539.44L860.014,530.85C860.061,530.766 860.112,530.683 860.166,530.603L865.735,522.26C865.788,522.18 865.844,522.103 865.903,522.027L872.153,513.99C872.211,513.915 872.272,513.843 872.335,513.773L879.24,506.096C879.302,506.026 879.367,505.959 879.434,505.894L886.961,498.631C887.028,498.567 887.096,498.505 887.167,498.446L895.279,491.647C895.349,491.588 895.422,491.532 895.496,491.478L904.153,485.19C904.226,485.136 904.302,485.085 904.379,485.037L906.086,483.968L899.381,480.458L894.55,478.234L889.597,476.154L884.561,474.237L879.448,472.485L874.264,470.901L869.018,469.488L863.716,468.249L858.367,467.186L852.976,466.301L847.551,465.595L842.101,465.07L836.633,464.726L831.154,464.564L825.672,464.585L820.195,464.788L814.73,465.173L809.285,465.739L803.868,466.486L798.485,467.412L793.145,468.515L787.856,469.794L782.623,471.245L777.455,472.868L772.359,474.658L767.341,476.612L762.439,478.715L752.827,483.43L751.911,483.959L757.187,487.461C757.263,487.511 757.338,487.564 757.41,487.62L765.861,494.111C765.934,494.167 766.005,494.225 766.074,494.286L773.964,501.27C774.034,501.332 774.101,501.396 774.166,501.462L781.457,508.891C781.522,508.958 781.586,509.027 781.646,509.099L788.302,516.921C788.363,516.994 788.422,517.068 788.478,517.145L794.469,525.307C794.526,525.384 794.58,525.464 794.631,525.545L799.93,533.99C799.981,534.073 800.03,534.157 800.076,534.243L804.662,542.913C804.708,543 804.751,543.089 804.791,543.18L808.649,552.014C808.689,552.106 808.726,552.2 808.759,552.294L811.877,561.232C811.911,561.329 811.941,561.426 811.967,561.525L814.339,570.504C814.366,570.605 814.388,570.706 814.407,570.809L816.033,579.768C816.051,579.872 816.066,579.977 816.077,580.083L816.96,588.959C816.971,589.066 816.977,589.175 816.979,589.283L817.129,598.015C817.131,598.126 817.128,598.236 817.121,598.347L816.553,606.874C816.545,606.987 816.533,607.1 816.516,607.211L815.249,615.476C815.231,615.59 815.209,615.704 815.181,615.816L813.24,623.76C813.211,623.875 813.178,623.989 813.14,624.101L810.552,631.67C810.513,631.784 810.469,631.897 810.419,632.008L807.219,639.149C807.168,639.262 807.112,639.373 807.051,639.481L803.277,646.145C803.214,646.255 803.146,646.363 803.073,646.467L798.766,652.607C798.691,652.714 798.611,652.817 798.526,652.916L793.731,658.49C793.644,658.591 793.552,658.687 793.455,658.779L788.221,663.749C788.123,663.843 788.019,663.931 787.912,664.014L782.291,668.345C782.181,668.43 782.066,668.509 781.948,668.582L775.995,672.244C775.874,672.318 775.75,672.385 775.623,672.446L769.393,675.414C769.264,675.476 769.131,675.53 768.996,675.577L762.549,677.831C762.413,677.879 762.274,677.919 762.133,677.951L755.528,679.475C755.386,679.507 755.242,679.532 755.097,679.549L748.397,680.332C748.252,680.349 748.105,680.358 747.959,680.358L741.225,680.395C741.078,680.396 740.932,680.388 740.786,680.373L734.08,679.663C733.935,679.647 733.791,679.624 733.648,679.593L727.032,678.141C726.89,678.11 726.75,678.071 726.613,678.025L720.148,675.842C720.012,675.796 719.879,675.743 719.749,675.683L713.496,672.783C713.368,672.724 713.243,672.657 713.122,672.585L707.138,668.989C707.019,668.917 706.904,668.84 706.793,668.756L701.137,664.489C701.028,664.407 700.924,664.319 700.824,664.226L695.55,659.317C695.453,659.226 695.359,659.13 695.271,659.03L690.432,653.513C690.345,653.414 690.264,653.312 690.188,653.206L685.831,647.119C685.757,647.015 685.688,646.908 685.624,646.798L681.796,640.183C681.734,640.075 681.676,639.965 681.624,639.852L678.367,632.755C678.316,632.645 678.271,632.532 678.23,632.417L675.582,624.888C675.542,624.776 675.508,624.662 675.479,624.547L673.473,616.637C673.444,616.525 673.421,616.411 673.402,616.297L672.068,608.061C672.05,607.949 672.037,607.837 672.028,607.724L671.391,599.219C671.383,599.108 671.379,598.998 671.38,598.887L671.46,590.172C671.461,590.063 671.467,589.955 671.476,589.847L672.288,580.982C672.298,580.876 672.312,580.771 672.33,580.666L673.883,571.713C673.901,571.61 673.923,571.508 673.949,571.407L676.248,562.427C676.274,562.328 676.303,562.23 676.336,562.133L679.382,553.189C679.414,553.093 679.45,552.999 679.49,552.907L683.276,544.06C683.315,543.969 683.357,543.879 683.403,543.791L687.919,535.103C687.964,535.017 688.012,534.932 688.064,534.849L693.294,526.379C693.345,526.297 693.398,526.217 693.455,526.139L699.379,517.947C699.434,517.87 699.493,517.795 699.554,517.723L706.146,509.865C706.206,509.793 706.269,509.723 706.334,509.655L713.565,502.186C713.629,502.119 713.696,502.054 713.765,501.992L721.599,494.963C721.667,494.901 721.738,494.842 721.811,494.786L730.209,488.245C730.281,488.189 730.355,488.135 730.431,488.084L736.542,483.969L734.744,482.946L725.094,478.291L720.175,476.219L715.141,474.296L710.031,472.539L704.849,470.949L699.605,469.531L694.305,468.286L688.957,467.218L683.567,466.327L678.143,465.615L672.694,465.084L667.226,464.734L661.803,464.567ZM744.252,488.386L743.664,488.726L734.97,494.58L726.788,500.952L719.161,507.796L712.126,515.065L705.716,522.706L699.96,530.666L694.882,538.887L690.502,547.314L686.833,555.886L683.886,564.542L681.663,573.221L680.164,581.863L679.382,590.407L679.305,598.793L679.917,606.962L681.196,614.858L683.115,622.427L685.644,629.616L688.747,636.376L692.386,642.663L696.517,648.435L701.096,653.654L706.073,658.287L711.399,662.305L717.021,665.684L722.887,668.404L728.942,670.448L735.132,671.807L741.402,672.47L747.696,672.436L753.961,671.705L760.14,670.28L766.179,668.169L772.024,665.384L777.62,661.942L782.914,657.863L787.854,653.171L792.391,647.897L796.477,642.073L800.065,635.738L803.114,628.934L805.585,621.706L807.443,614.104L808.658,606.179L809.204,597.986L809.06,589.582L808.208,581.026L806.639,572.377L804.345,563.697L801.327,555.047L797.589,546.487L793.14,538.077L787.996,529.878L782.175,521.947L775.703,514.34L768.608,507.111L760.926,500.311L752.692,493.987L744.252,488.386ZM913.826,488.47L908.699,491.681L900.264,497.808L892.363,504.429L885.037,511.499L878.321,518.966L872.245,526.778L866.837,534.881L862.117,543.216L858.103,551.725L854.805,560.347L852.232,569.023L850.383,577.691L849.255,586.29L848.839,594.759L849.12,603.041L850.079,611.076L851.693,618.81L853.931,626.188L856.761,633.162L860.145,639.683L864.044,645.709L868.412,651.2L873.202,656.12L878.366,660.44L883.851,664.131L889.606,667.172L895.576,669.544L901.708,671.236L907.946,672.236L914.236,672.54L920.522,672.146L926.749,671.055L932.862,669.275L938.808,666.814L944.531,663.688L949.977,659.914L955.096,655.515L959.834,650.519L964.144,644.957L967.978,638.865L971.293,632.282L974.048,625.253L976.207,617.825L977.737,610.049L978.609,601.979L978.801,593.67L978.293,585.18L977.072,576.569L975.129,567.897L972.462,559.224L969.071,550.613L964.964,542.123L960.154,533.815L954.658,525.747L948.498,517.977L941.7,510.558L934.298,503.544L926.326,496.984L917.824,490.924L913.826,488.47ZM1083.42,488.398L1082.54,488.907L1073.86,494.779L1065.7,501.167L1058.09,508.026L1051.08,515.307L1044.69,522.959L1038.95,530.928L1033.9,539.158L1029.54,547.59L1025.89,556.165L1022.97,564.823L1020.77,573.502L1019.3,582.142L1018.54,590.682L1018.48,599.061L1019.12,607.223L1020.42,615.109L1022.36,622.666L1024.9,629.842L1028.03,636.588L1031.68,642.859L1035.83,648.613L1040.42,653.813L1045.41,658.427L1050.75,662.425L1056.38,665.783L1062.25,668.481L1068.31,670.503L1074.5,671.839L1080.77,672.48L1087.07,672.424L1093.33,671.669L1099.51,670.222L1105.54,668.089L1111.38,665.283L1116.96,661.819L1122.25,657.72L1127.18,653.009L1131.7,647.717L1135.77,641.876L1139.34,635.525L1142.37,628.706L1144.82,621.465L1146.66,613.851L1147.86,605.917L1148.38,597.716L1148.21,589.306L1147.34,580.746L1145.74,572.096L1143.43,563.416L1140.39,554.767L1136.62,546.211L1132.15,537.808L1126.99,529.617L1121.14,521.695L1114.65,514.1L1107.54,506.884L1099.84,500.098L1091.59,493.79L1083.42,488.398ZM1252.99,488.468L1247.59,491.871L1239.17,498.015L1231.28,504.652L1223.98,511.735L1217.28,519.214L1211.23,527.037L1205.84,535.148L1201.14,543.489L1197.15,552.003L1193.88,560.628L1191.33,569.305L1189.5,577.971L1188.4,586.567L1188.01,595.031L1188.31,603.306L1189.29,611.332L1190.92,619.055L1193.18,626.421L1196.03,633.381L1199.43,639.887L1203.35,645.896L1207.73,651.369L1212.53,656.27L1217.71,660.569L1223.2,664.24L1228.96,667.259L1234.94,669.61L1241.08,671.279L1247.32,672.257L1253.61,672.538L1259.89,672.121L1266.12,671.008L1272.23,669.206L1278.16,666.723L1283.88,663.576L1289.32,659.781L1294.42,655.363L1299.15,650.348L1303.44,644.767L1307.26,638.658L1310.56,632.061L1313.3,625.018L1315.43,617.578L1316.94,609.792L1317.79,601.713L1317.96,593.397L1317.43,584.902L1316.19,576.288L1314.22,567.615L1311.53,558.944L1308.12,550.335L1303.99,541.851L1299.15,533.549L1293.64,525.49L1287.45,517.73L1280.64,510.324L1273.22,503.324L1265.23,496.779L1256.71,490.736L1252.99,488.468Z"/>
        </g>
        <g transform="matrix(4.16667,0,0,4.16667,-210.15,763.045)">
            <g transform="matrix(0.214748,0,0,0.214748,410.09,64.9188)">
                <path d="M147.245,234.505C147.245,240.241 144.898,244.451 140.205,247.133C135.585,249.815 128.917,251.157 120.2,251.157C111.706,251.157 105.559,249.853 101.76,247.245C97.96,244.637 96.06,241.136 96.06,236.74C96.06,233.387 96.991,230.63 98.854,228.47C100.717,226.383 103.324,224.819 106.677,223.776L106.677,223.329C102.877,222.062 100.977,219.492 100.977,215.617C100.977,213.01 101.909,210.923 103.771,209.359C105.708,207.794 107.981,206.639 110.589,205.894L110.589,205.559C107.31,204.069 104.74,201.908 102.877,199.077C101.089,196.246 100.195,192.707 100.195,188.46C100.195,185.554 100.642,182.947 101.536,180.637C102.505,178.253 103.846,176.241 105.559,174.602C107.273,172.888 109.359,171.584 111.818,170.69C114.277,169.796 117.033,169.349 120.088,169.349C125.005,169.349 129.029,170.467 132.158,172.702L132.158,168.232C132.158,165.475 133.462,164.097 136.07,164.097L146.91,164.097L146.91,167.561L134.84,167.561L134.84,174.714C136.554,176.427 137.858,178.439 138.752,180.749C139.72,183.058 140.205,185.629 140.205,188.46C140.205,191.291 139.72,193.899 138.752,196.283C137.783,198.593 136.405,200.604 134.617,202.318C132.903,203.957 130.817,205.261 128.358,206.23C125.9,207.124 123.18,207.571 120.2,207.571C119.082,207.571 118.039,207.496 117.071,207.347C116.102,207.198 115.096,207.012 114.053,206.788C110.998,207.608 108.651,208.688 107.012,210.029C105.373,211.37 104.554,213.047 104.554,215.059C104.554,216.623 105.224,218.002 106.565,219.194C107.906,220.311 110.402,220.87 114.053,220.87L128.47,220.87C135.101,220.87 139.869,222.099 142.775,224.558C145.755,226.942 147.245,230.258 147.245,234.505ZM143.334,234.728C143.334,231.524 142.216,229.028 139.981,227.24C137.82,225.452 133.909,224.558 128.246,224.558L110.477,224.558C107.348,225.378 104.814,226.719 102.877,228.581C100.94,230.518 99.972,233.089 99.972,236.293C99.972,239.645 101.462,242.365 104.442,244.451C107.422,246.612 111.632,247.692 117.071,247.692L123.217,247.692C126.198,247.692 128.917,247.431 131.376,246.91C133.834,246.388 135.958,245.606 137.746,244.563C139.534,243.52 140.912,242.179 141.881,240.539C142.85,238.9 143.334,236.963 143.334,234.728ZM120.2,204.106C125.117,204.106 128.954,202.84 131.711,200.306C134.468,197.773 135.846,194.495 135.846,190.472L135.846,186.448C135.846,182.425 134.468,179.147 131.711,176.614C128.954,174.08 125.117,172.814 120.2,172.814C115.208,172.814 111.334,174.08 108.577,176.614C105.895,179.147 104.554,182.425 104.554,186.448L104.554,190.472C104.554,194.495 105.932,197.773 108.689,200.306C111.445,202.84 115.282,204.106 120.2,204.106Z" style="fill-rule:nonzero;"/>
            </g>
            <g transform="matrix(0.214748,0,0,0.214748,410.09,64.9188)">
                <path d="M165.686,227.464C162.482,227.464 160.88,225.899 160.88,222.77L160.88,144.762L164.792,144.762L164.792,223.999L174.067,223.999L174.067,227.464L165.686,227.464Z" style="fill-rule:nonzero;"/>
            </g>
            <g transform="matrix(0.214748,0,0,0.214748,410.09,64.9188)">
                <path d="M225.588,218.747L225.141,218.747C224.62,220.013 223.875,221.28 222.906,222.546C222.012,223.738 220.857,224.819 219.441,225.787C218.1,226.681 216.461,227.389 214.524,227.911C212.587,228.507 210.352,228.805 207.819,228.805C201.56,228.805 196.754,226.979 193.402,223.329C190.049,219.603 188.373,214.202 188.373,207.124L188.373,170.69L192.284,170.69L192.284,206.453C192.284,213.01 193.7,217.815 196.531,220.87C199.362,223.85 203.423,225.34 208.713,225.34C210.873,225.34 212.959,225.042 214.971,224.446C217.057,223.85 218.883,222.993 220.447,221.876C222.012,220.684 223.241,219.194 224.135,217.405C225.104,215.543 225.588,213.382 225.588,210.923L225.588,170.69L229.5,170.69L229.5,227.464L225.588,227.464L225.588,218.747Z" style="fill-rule:nonzero;"/>
            </g>
            <g transform="matrix(0.214748,0,0,0.214748,410.09,64.9188)">
                <path d="M271.074,228.805C263.623,228.805 257.737,226.272 253.416,221.205C249.169,216.139 247.046,208.763 247.046,199.077C247.046,189.317 249.169,181.941 253.416,176.949C257.737,171.882 263.623,169.349 271.074,169.349C278.525,169.349 284.373,171.882 288.62,176.949C292.941,181.941 295.102,189.317 295.102,199.077C295.102,208.763 292.941,216.139 288.62,221.205C284.373,226.272 278.525,228.805 271.074,228.805ZM271.074,225.34C277.407,225.34 282.287,223.291 285.714,219.194C289.142,215.021 290.855,209.322 290.855,202.095L290.855,196.06C290.855,188.758 289.142,183.058 285.714,178.96C282.287,174.863 277.407,172.814 271.074,172.814C264.741,172.814 259.861,174.863 256.434,178.96C253.006,183.058 251.293,188.758 251.293,196.06L251.293,202.095C251.293,209.322 253.006,215.021 256.434,219.194C259.861,223.291 264.741,225.34 271.074,225.34Z" style="fill-rule:nonzero;"/>
            </g>
            <g transform="matrix(0.214748,0,0,0.214748,410.09,64.9188)">
                <path d="M312.648,227.464L312.648,170.69L316.56,170.69L316.56,179.408L316.895,179.408C318.013,176.651 319.95,174.304 322.706,172.367C325.538,170.355 329.412,169.349 334.329,169.349C340.588,169.349 345.356,171.212 348.634,174.937C351.987,178.588 353.664,183.952 353.664,191.03L353.664,227.464L349.752,227.464L349.752,191.701C349.752,185.144 348.336,180.376 345.505,177.396C342.749,174.341 338.725,172.814 333.435,172.814C331.275,172.814 329.151,173.112 327.065,173.708C325.053,174.304 323.265,175.198 321.701,176.39C320.136,177.582 318.869,179.072 317.901,180.86C317.007,182.649 316.56,184.735 316.56,187.119L316.56,227.464L312.648,227.464Z" style="fill-rule:nonzero;"/>
            </g>
            <g transform="matrix(0.214748,0,0,0.214748,410.09,64.9188)">
                <path d="M416.807,228.805C412.113,228.805 408.016,227.948 404.514,226.234C401.087,224.521 398.069,221.839 395.461,218.188L398.479,215.953C401.012,219.305 403.694,221.727 406.525,223.217C409.431,224.633 412.896,225.34 416.919,225.34C421.985,225.34 425.822,224.297 428.43,222.211C431.038,220.125 432.342,217.107 432.342,213.159C432.342,209.359 431.224,206.528 428.989,204.665C426.828,202.802 423.476,201.498 418.931,200.753L414.125,199.971C411.592,199.599 409.282,199.04 407.196,198.295C405.184,197.55 403.433,196.581 401.943,195.389C400.528,194.122 399.41,192.595 398.591,190.807C397.846,189.019 397.473,186.858 397.473,184.325C397.473,181.866 397.92,179.706 398.814,177.843C399.783,175.98 401.087,174.416 402.726,173.149C404.439,171.882 406.414,170.951 408.649,170.355C410.959,169.685 413.417,169.349 416.025,169.349C420.793,169.349 424.668,170.206 427.648,171.92C430.628,173.559 433.087,175.496 435.024,177.731L432.23,180.302C431.41,179.333 430.479,178.402 429.436,177.508C428.467,176.614 427.35,175.831 426.083,175.161C424.817,174.416 423.327,173.857 421.613,173.484C419.974,173.037 418.074,172.814 415.913,172.814C411.443,172.814 407.867,173.782 405.184,175.719C402.577,177.657 401.273,180.488 401.273,184.213C401.273,188.013 402.39,190.807 404.626,192.595C406.861,194.309 410.251,195.538 414.796,196.283L419.601,197.065C424.891,197.885 428.952,199.524 431.783,201.983C434.689,204.367 436.142,207.98 436.142,212.823C436.142,217.89 434.428,221.839 431.001,224.67C427.573,227.426 422.842,228.805 416.807,228.805Z" style="fill-rule:nonzero;"/>
            </g>
            <g transform="matrix(0.214748,0,0,0.214748,410.09,64.9188)">
                <path d="M485.874,170.69L489.786,170.69L462.07,246.127C461.473,247.469 460.766,248.4 459.946,248.921C459.127,249.517 457.897,249.815 456.258,249.815L447.988,249.815L447.988,246.351L458.046,246.351L464.752,228.581L443.406,170.69L447.541,170.69L466.54,223.217L466.875,223.217L485.874,170.69Z" style="fill-rule:nonzero;"/>
            </g>
            <g transform="matrix(0.214748,0,0,0.214748,410.09,64.9188)">
                <path d="M503.644,227.464L503.644,170.69L507.555,170.69L507.555,179.408L507.891,179.408C509.008,176.651 510.945,174.304 513.702,172.367C516.533,170.355 520.408,169.349 525.325,169.349C531.583,169.349 536.352,171.212 539.63,174.937C542.983,178.588 544.659,183.952 544.659,191.03L544.659,227.464L540.748,227.464L540.748,191.701C540.748,185.144 539.332,180.376 536.501,177.396C533.744,174.341 529.721,172.814 524.431,172.814C522.27,172.814 520.147,173.112 518.061,173.708C516.049,174.304 514.261,175.198 512.696,176.39C511.132,177.582 509.865,179.072 508.896,180.86C508.002,182.649 507.555,184.735 507.555,187.119L507.555,227.464L503.644,227.464Z" style="fill-rule:nonzero;"/>
            </g>
            <g transform="matrix(0.214748,0,0,0.214748,410.09,64.9188)">
                <path d="M603.221,218.635L602.885,218.635C601.619,221.317 599.495,223.701 596.515,225.787C593.535,227.799 589.661,228.805 584.892,228.805C577.442,228.805 571.63,226.309 567.458,221.317C563.36,216.251 561.311,208.837 561.311,199.077C561.311,189.317 563.36,181.941 567.458,176.949C571.63,171.882 577.442,169.349 584.892,169.349C589.661,169.349 593.535,170.355 596.515,172.367C599.495,174.378 601.619,176.763 602.885,179.519L603.221,179.519L603.221,144.762L607.132,144.762L607.132,227.464L603.221,227.464L603.221,218.635ZM585.451,225.229C587.835,225.229 590.108,224.893 592.268,224.223C594.429,223.552 596.292,222.584 597.856,221.317C599.495,220.05 600.799,218.56 601.768,216.847C602.736,215.059 603.221,213.084 603.221,210.923L603.221,187.007C603.221,184.921 602.736,183.021 601.768,181.307C600.799,179.519 599.495,178.029 597.856,176.837C596.292,175.57 594.429,174.602 592.268,173.931C590.108,173.186 587.835,172.814 585.451,172.814C579.118,172.814 574.201,174.9 570.699,179.072C567.272,183.17 565.558,188.758 565.558,195.836L565.558,202.318C565.558,209.396 567.272,214.984 570.699,219.082C574.201,223.18 579.118,225.229 585.451,225.229Z" style="fill-rule:nonzero;"/>
            </g>
            <g transform="matrix(0.214748,0,0,0.214748,410.09,64.9188)">
                <path d="M631.496,153.144C630.304,153.144 629.447,152.883 628.925,152.362C628.404,151.766 628.143,151.058 628.143,150.239L628.143,149.233C628.143,148.413 628.366,147.743 628.813,147.221C629.335,146.625 630.192,146.327 631.384,146.327C632.576,146.327 633.433,146.625 633.954,147.221C634.476,147.743 634.737,148.413 634.737,149.233L634.737,150.239C634.737,151.058 634.476,151.766 633.954,152.362C633.507,152.883 632.688,153.144 631.496,153.144ZM629.484,170.69L633.396,170.69L633.396,227.464L629.484,227.464L629.484,170.69Z" style="fill-rule:nonzero;"/>
            </g>
            <g transform="matrix(0.214748,0,0,0.214748,410.09,64.9188)">
                <path d="M674.97,228.805C667.37,228.805 661.447,226.272 657.2,221.205C653.028,216.139 650.942,208.763 650.942,199.077C650.942,189.317 653.028,181.941 657.2,176.949C661.447,171.882 667.37,169.349 674.97,169.349C679.738,169.349 683.687,170.43 686.816,172.59C689.945,174.676 692.367,177.508 694.08,181.084L690.839,182.76C689.2,179.557 687.114,177.098 684.581,175.384C682.122,173.671 678.919,172.814 674.97,172.814C668.562,172.814 663.645,174.9 660.218,179.072C656.865,183.245 655.188,188.832 655.188,195.836L655.188,202.318C655.188,209.322 656.865,214.91 660.218,219.082C663.645,223.254 668.562,225.34 674.97,225.34C679.217,225.34 682.681,224.484 685.363,222.77C688.12,220.982 690.355,218.523 692.069,215.394L694.975,217.405C693.112,220.833 690.579,223.589 687.375,225.676C684.171,227.762 680.036,228.805 674.97,228.805Z" style="fill-rule:nonzero;"/>
            </g>
            <g transform="matrix(0.214748,0,0,0.214748,410.09,64.9188)">
                <path d="M747.613,227.464C744.558,227.464 742.956,225.899 742.807,222.77L742.807,218.635L742.36,218.635C741.019,221.541 738.896,223.962 735.99,225.899C733.084,227.836 729.173,228.805 724.255,228.805C718.369,228.805 713.824,227.389 710.621,224.558C707.417,221.727 705.815,217.741 705.815,212.6C705.815,210.141 706.188,207.906 706.933,205.894C707.678,203.883 708.907,202.169 710.621,200.753C712.409,199.263 714.681,198.146 717.438,197.401C720.269,196.581 723.734,196.171 727.832,196.171L742.695,196.171L742.695,188.572C742.695,183.207 741.392,179.259 738.784,176.725C736.176,174.118 732.302,172.814 727.161,172.814C719.189,172.814 713.675,176.167 710.621,182.872L707.827,180.972C709.391,177.47 711.701,174.676 714.756,172.59C717.811,170.43 721.983,169.349 727.273,169.349C733.606,169.349 738.411,170.988 741.69,174.267C744.968,177.47 746.607,182.09 746.607,188.125L746.607,223.999L755.324,223.999L755.324,227.464L747.613,227.464ZM724.591,225.34C727.049,225.34 729.359,225.042 731.52,224.446C733.755,223.776 735.692,222.844 737.331,221.652C738.97,220.46 740.274,218.97 741.243,217.182C742.211,215.394 742.695,213.308 742.695,210.923L742.695,199.301L727.832,199.301C721.573,199.301 717.028,200.381 714.197,202.542C711.366,204.628 709.95,207.422 709.95,210.923L709.95,214.053C709.95,217.778 711.291,220.609 713.973,222.546C716.73,224.409 720.269,225.34 724.591,225.34Z" style="fill-rule:nonzero;"/>
            </g>
            <g transform="matrix(0.214748,0,0,0.214748,410.09,64.9188)">
                <path d="M776.67,227.464C773.466,227.464 771.864,225.899 771.864,222.77L771.864,174.155L761.583,174.155L761.583,170.69L768.959,170.69C770.225,170.69 771.045,170.43 771.417,169.908C771.864,169.386 772.088,168.492 772.088,167.226L772.088,154.597L775.776,154.597L775.776,170.69L789.075,170.69L789.075,174.155L775.776,174.155L775.776,223.999L788.181,223.999L788.181,227.464L776.67,227.464Z" style="fill-rule:nonzero;"/>
            </g>
            <g transform="matrix(0.214748,0,0,0.214748,410.09,64.9188)">
                <path d="M824.168,228.805C816.642,228.805 810.682,226.272 806.286,221.205C801.965,216.139 799.804,208.763 799.804,199.077C799.804,189.466 801.928,182.127 806.174,177.061C810.421,171.92 816.27,169.349 823.72,169.349C827.222,169.349 830.389,170.02 833.22,171.361C836.126,172.702 838.584,174.602 840.596,177.061C842.682,179.519 844.284,182.5 845.402,186.001C846.519,189.429 847.078,193.266 847.078,197.512L847.078,199.301L803.939,199.301L803.939,202.318C803.939,205.82 804.386,208.986 805.28,211.818C806.174,214.649 807.478,217.07 809.192,219.082C810.98,221.093 813.103,222.658 815.562,223.776C818.095,224.819 820.964,225.34 824.168,225.34C833.183,225.34 839.404,221.019 842.831,212.376L845.849,214.053C844.135,218.523 841.453,222.099 837.802,224.782C834.151,227.464 829.606,228.805 824.168,228.805ZM823.72,172.814C820.591,172.814 817.797,173.373 815.339,174.49C812.954,175.533 810.905,177.061 809.192,179.072C807.478,181.084 806.174,183.505 805.28,186.337C804.386,189.168 803.939,192.297 803.939,195.724L803.939,196.171L842.831,196.171L842.831,195.501C842.831,192.073 842.347,188.982 841.378,186.225C840.484,183.394 839.18,181.009 837.467,179.072C835.828,177.061 833.816,175.533 831.432,174.49C829.122,173.373 826.552,172.814 823.72,172.814Z" style="fill-rule:nonzero;"/>
            </g>
        </g>
    </g>
</svg>
